<svg xmlns="http://www.w3.org/2000/svg" xmlns:xlink="http://www.w3.org/1999/xlink" viewBox="0 0 141.32 112.73"><defs><style>.cls-1{fill:none;}.cls-2{fill:#294171;}.cls-3{fill:#ea5055;}.cls-4{fill:url(#Nueva_muestra_de_motivo_3);}</style><pattern id="Nueva_muestra_de_motivo_3" data-name="Nueva muestra de motivo 3" width="38.01" height="38.01" patternUnits="userSpaceOnUse" viewBox="0 0 38.01 38.01"><rect class="cls-1" width="38.01" height="38.01"/><rect class="cls-2" width="38.01" height="38.01"/></pattern></defs><g id="Capa_2" data-name="Capa 2"><g id="Capa_1-2" data-name="Capa 1"><path class="cls-3" d="M63.35,112.73H1.5V102.41L27.17,78.29C40.71,65.55,44.84,59.4,44.84,52c0-5.29-1.82-11.37-16-11.37A72.75,72.75,0,0,0,6,44.12l-2.15.69L5.19,29l1-.3A73.19,73.19,0,0,1,29.72,25c19.33,0,31.82,10.15,31.82,25.87,0,11.79-5.87,21.46-23.3,38.32L29.7,97.4H48.41c3.49,0,9.43-.14,14.7-.55l1.78-.13Zm-58.85-3H60.62l1-9.76c-4.88.32-10,.43-13.16.43H22.26L36.16,87C53.1,70.63,58.54,61.84,58.54,50.86,58.54,36.75,47.5,28,29.72,28A68.6,68.6,0,0,0,8,31.23L7.18,40.6a75.92,75.92,0,0,1,21.71-3c12.75,0,19,4.7,19,14.37,0,8.44-4.35,15.1-18.61,28.51L4.5,103.71Z"/><path class="cls-3" d="M139.77,112.73H73.35v-9.39l28.46-33.92c16.31-19.23,19.59-27.71,19.59-35.18,0-6.07-2.1-14.14-20.24-14.14a78,78,0,0,0-22.53,3.53l-2.14.67L77.88,8.2l1-.31a78.69,78.69,0,0,1,24.68-3.67c21.75,0,34.73,10.81,34.73,28.91,0,13-6,24.74-22.78,44.72L99.36,97.4H125c5.52,0,10.82-.2,14.53-.55l1.81-.16Zm-63.42-3H137l1-9.74c-4.79.36-10.09.41-13,.41H93l20.16-24.47c16.31-19.37,22.08-30.57,22.08-42.8,0-16.46-11.56-25.91-31.73-25.91a76.12,76.12,0,0,0-22.82,3.23l-.83,9.68a81.27,81.27,0,0,1,21.3-3c15.42,0,23.24,5.77,23.24,17.14,0,9.62-5.5,19.67-20.3,37.11L76.35,104.43Z"/><path class="cls-4" d="M0,97.34,25.2,73.66c14-13.15,18.14-19.52,18.14-27.41,0-8.45-5.13-12.88-17.45-12.88A74.52,74.52,0,0,0,2.49,37L3.6,24.37a71.32,71.32,0,0,1,23.12-3.6C45.55,20.77,57,30.32,57,45.14c0,11.49-5.81,20.77-22.84,37.24L23,93.18H45.41c3.47,0,9.42-.14,14.82-.55L59,105.5H0Z"/><path class="cls-4" d="M71.85,98.17,100,64.66c15.51-18.28,19.94-27.55,19.94-36.14,0-9.83-6.09-15.64-21.74-15.64a79.16,79.16,0,0,0-23,3.6L76.28,3.6A77.64,77.64,0,0,1,100.51,0C122,0,133.74,10.52,133.74,27.42c0,12.87-6.23,24.5-22.43,43.75l-18.13,22H122c4.56,0,10.24-.14,14.67-.55l-1.24,12.87H71.85Z"/></g></g></svg>