<svg xmlns="http://www.w3.org/2000/svg" viewBox="0 0 140.59 112.73"><defs><style>.cls-1{fill:#ea5055;}.cls-2{fill:#294171;}</style></defs><g id="Capa_2" data-name="Capa 2"><g id="Capa_1-2" data-name="Capa 1"><path class="cls-1" d="M64.86,111.06H3V100.75L28.69,76.63C42.23,63.89,46.36,57.74,46.36,50.3c0-5.29-1.82-11.37-15.95-11.37A72.75,72.75,0,0,0,7.47,42.46l-2.15.69L6.71,27.29l1-.29a73.15,73.15,0,0,1,23.57-3.67c19.33,0,31.82,10.15,31.82,25.87,0,11.79-5.88,21.46-23.3,38.32l-8.54,8.22H49.93c3.49,0,9.43-.14,14.7-.55l1.78-.13ZM6,108.06H62.14l.94-9.75c-4.87.32-10,.43-13.15.43H23.78l13.9-13.38C54.62,69,60.06,60.18,60.06,49.2c0-14.11-11-22.87-28.82-22.87A69,69,0,0,0,9.52,29.56L8.7,38.94a75.92,75.92,0,0,1,21.71-3c12.75,0,19,4.7,19,14.37,0,8.44-4.35,15.1-18.61,28.51L6,102Z"/><path class="cls-1" d="M97.14,112.73a75.07,75.07,0,0,1-18.65-2l-1-.27-1-16.27,2.07.64a65.05,65.05,0,0,0,18.81,2.42c18,0,26.75-6.16,26.75-18.85,0-10.65-4-20.51-33-20.51H79.93L82.28,4.22h53.33l1.55,16-1.75-.11c-4.66-.27-11.45-.55-15.42-.55H97.47l-1,23.9c29.27.79,44.1,12.55,44.1,35C140.59,100.54,125.16,112.73,97.14,112.73Zm-16.85-4.64a74.79,74.79,0,0,0,16.85,1.64c26.47,0,40.45-10.83,40.45-31.32,0-20.85-14.36-31.61-42.68-32l-1.55,0,1.23-29.84H120c3.55,0,9.31.22,13.84.46l-.94-9.78H85.15L83.06,54.9h8c24.88,0,36,7.25,36,23.51,0,14.5-10,21.85-29.75,21.85a71.31,71.31,0,0,1-17.61-2Z"/><path class="cls-2" d="M0,95.67,25.2,72c14-13.16,18.14-19.52,18.14-27.42,0-8.44-5.13-12.87-17.45-12.87a74.23,74.23,0,0,0-23.4,3.6L3.6,22.71a71.32,71.32,0,0,1,23.12-3.6C45.55,19.11,57,28.66,57,43.48,57,55,51.23,64.24,34.2,80.72L23,91.52H45.41c3.47,0,9.42-.14,14.82-.55L59,103.84H0Z"/><path class="cls-2" d="M79.19,0h50.54L131,12.88c-4.71-.28-11.5-.56-15.51-.56h-24l-1.1,26.86c30,.42,44.17,12.19,44.17,33.51,0,20.35-13.71,32.81-42,32.81a74.25,74.25,0,0,1-18.27-1.93l-.83-13A66.34,66.34,0,0,0,92.76,93C111.31,93,121,86.54,121,72.69c0-14.26-8.59-22-34.48-22H77Z"/></g></g></svg>